<svg xmlns="http://www.w3.org/2000/svg" viewBox="0 0 1600 1000" preserveAspectRatio="xMidYMid slice">
  <defs>
    <linearGradient id="bg" x1="0" y1="0" x2="1" y2="1">
      <stop offset="0" stop-color="#0a0d16"/>
      <stop offset="0.48" stop-color="#181427"/>
      <stop offset="1" stop-color="#07090f"/>
    </linearGradient>
    <linearGradient id="beamA" x1="0" y1="0" x2="1" y2="1">
      <stop offset="0" stop-color="#2fe6a3" stop-opacity="0.42"/>
      <stop offset="1" stop-color="#2fe6a3" stop-opacity="0"/>
    </linearGradient>
    <linearGradient id="beamB" x1="1" y1="0" x2="0" y2="1">
      <stop offset="0" stop-color="#ff6b87" stop-opacity="0.38"/>
      <stop offset="1" stop-color="#ff6b87" stop-opacity="0"/>
    </linearGradient>
    <linearGradient id="beamC" x1="0.5" y1="0" x2="0.5" y2="1">
      <stop offset="0" stop-color="#6ad7ff" stop-opacity="0.26"/>
      <stop offset="1" stop-color="#6ad7ff" stop-opacity="0"/>
    </linearGradient>
  </defs>
  <rect width="1600" height="1000" fill="url(#bg)"/>
  <path d="M120 0 L540 0 L920 1000 L360 1000 Z" fill="url(#beamA)" opacity="0.55"/>
  <path d="M1040 0 L1510 0 L1180 1000 L650 1000 Z" fill="url(#beamB)" opacity="0.55"/>
  <path d="M620 0 L1000 0 L1110 1000 L500 1000 Z" fill="url(#beamC)" opacity="0.42"/>
  <g opacity="0.82" stroke="#f6f8fb" stroke-width="4" stroke-linecap="round">
    <path d="M190 530 C250 430 310 390 384 320" opacity="0.12"/>
    <path d="M1430 500 C1330 420 1270 360 1198 260" opacity="0.10"/>
    <path d="M690 420 C740 330 810 278 880 220" opacity="0.08"/>
  </g>
  <g fill="#02040a" opacity="0.86">
    <path d="M0 800 C110 730 220 730 326 790 C432 850 522 820 620 770 C728 715 822 720 930 790 C1048 865 1160 845 1262 780 C1388 700 1502 712 1600 790 L1600 1000 L0 1000 Z"/>
    <circle cx="164" cy="700" r="36"/>
    <path d="M132 742 C154 720 180 720 202 742 L224 940 L110 940 Z"/>
    <path d="M190 718 L248 650" stroke="#02040a" stroke-width="24" stroke-linecap="round"/>
    <circle cx="302" cy="684" r="38"/>
    <path d="M268 734 C294 704 324 704 352 734 L386 970 L236 970 Z"/>
    <path d="M330 704 L394 620" stroke="#02040a" stroke-width="26" stroke-linecap="round"/>
    <circle cx="506" cy="710" r="34"/>
    <path d="M474 752 C500 724 526 724 552 752 L580 960 L444 960 Z"/>
    <circle cx="734" cy="672" r="42"/>
    <path d="M690 724 C722 690 754 690 786 724 L832 1000 L646 1000 Z"/>
    <path d="M704 706 L640 610" stroke="#02040a" stroke-width="28" stroke-linecap="round"/>
    <path d="M770 702 L852 620" stroke="#02040a" stroke-width="28" stroke-linecap="round"/>
    <circle cx="980" cy="704" r="36"/>
    <path d="M946 746 C972 718 1000 718 1028 746 L1060 972 L914 972 Z"/>
    <path d="M964 716 L904 642" stroke="#02040a" stroke-width="24" stroke-linecap="round"/>
    <circle cx="1220" cy="660" r="44"/>
    <path d="M1174 718 C1208 684 1240 684 1276 718 L1328 1000 L1122 1000 Z"/>
    <path d="M1238 692 L1318 588" stroke="#02040a" stroke-width="30" stroke-linecap="round"/>
    <circle cx="1436" cy="716" r="34"/>
    <path d="M1402 754 C1428 728 1450 728 1478 754 L1508 960 L1370 960 Z"/>
  </g>
</svg>
